<svg width="154" height="154" viewBox="0 0 154 154" fill="none" xmlns="http://www.w3.org/2000/svg">
<path d="M58.3275 57.75C59.8361 53.4615 62.8138 49.8453 66.7331 47.5419C70.6524 45.2385 75.2605 44.3965 79.7411 45.1651C84.2217 45.9336 88.2858 48.2631 91.2135 51.741C94.1411 55.2188 95.7435 59.6206 95.7367 64.1666C95.7367 77 76.4867 83.4166 76.4867 83.4166M77 109.083H77.0642M141.167 77C141.167 112.438 112.438 141.167 77 141.167C41.5618 141.167 12.8334 112.438 12.8334 77C12.8334 41.5617 41.5618 12.8333 77 12.8333C112.438 12.8333 141.167 41.5617 141.167 77Z" stroke="black" stroke-width="4" stroke-linecap="round" stroke-linejoin="round"/>
</svg>
